<?xml version="1.0" encoding="UTF-8"?>
<svg id="Capa_1" xmlns="http://www.w3.org/2000/svg" version="1.1" viewBox="0 0 476 112.6">
  <!-- Generator: Adobe Illustrator 29.5.1, SVG Export Plug-In . SVG Version: 2.1.0 Build 141)  -->
  <defs>
    <style>
      .st0 {
        fill: #fff;
      }

      .st1 {
        fill: #39c837;
      }

      .st2 {
        fill: #e8e8e8;
      }
    </style>
  </defs>
  <rect y="0" width="112.6" height="112.6"/>
  <rect class="st2" x="112.5" width="142.6" height="112.6"/>
  <g>
    <path class="st1" d="M169.9,61.5c2.4-1.2,4.4-2.9,5.7-5.1,1.4-2.2,2.1-4.7,2.1-7.4s-.7-5.3-2.1-7.4c-1.4-2.2-3.3-3.9-5.7-5.1-2.4-1.2-5.2-1.8-8.3-1.8h-8.3c0,0-8.6,0-8.6,0v43h9.9v-14.4h5.3l8.2,14.4h11.3l-9.7-16.2c0,0,.1,0,.2,0ZM154.7,43.8h6.5c1.8,0,3.3.5,4.5,1.5,1.1,1,1.7,2.2,1.7,3.7s-.3,1.9-.8,2.7c-.5.8-1.2,1.4-2.1,1.9-.9.5-1.9.7-3.1.7h-6.7v-10.4Z"/>
    <polygon class="st1" points="213 34.8 213 61.1 194.1 34.8 183.7 34.8 183.7 77.8 193.6 77.9 193.6 50.8 213 77.8 222.9 77.8 222.9 34.8 213 34.8"/>
  </g>
  <g>
    <polygon class="st0" points="56.2 84.6 60 81.8 58.6 86.3 62.4 89.1 57.7 89.1 56.2 93.6 54.7 89.1 50 89.1 53.8 86.3 52.4 81.8 56.2 84.6"/>
    <polygon class="st0" points="69.6 81.3 71.7 77.1 72.5 81.7 77.2 82.4 73 84.6 73.8 89.3 70.4 86 66.2 88.2 68.3 83.9 64.9 80.6 69.6 81.3"/>
    <polygon class="st0" points="80 72.2 79.9 67.5 82.7 71.2 87.2 69.7 84.5 73.5 87.4 77.3 82.8 75.9 80.2 79.8 80 75.1 75.5 73.8 80 72.2"/>
    <polygon class="st0" points="84.9 59.3 82.6 55.2 86.9 57.2 90.1 53.7 89.5 58.4 93.8 60.4 89.2 61.3 88.6 66 86.3 61.8 81.7 62.8 84.9 59.3"/>
    <polygon class="st0" points="83.3 45.6 79.3 43 84.1 42.8 85.3 38.2 87 42.6 91.7 42.4 88 45.4 89.7 49.8 85.7 47.2 82 50.1 83.3 45.6"/>
    <polygon class="st0" points="75.5 34.2 70.8 33.8 74.8 31.4 73.8 26.7 77.4 29.9 81.4 27.5 79.5 31.8 83.1 34.9 78.4 34.5 76.5 38.8 75.5 34.2"/>
    <polygon class="st0" points="63.3 27.8 58.9 29.5 61.4 25.5 58.3 21.9 62.9 23 65.4 19 65.8 23.7 70.3 24.9 66 26.7 66.3 31.4 63.3 27.8"/>
    <polygon class="st0" points="49.5 27.7 46.4 31.3 46.8 26.6 42.4 24.8 47 23.7 47.3 19 49.8 23 54.4 21.9 51.4 25.5 53.8 29.5 49.5 27.7"/>
    <polygon class="st0" points="37.2 34.1 36.2 38.7 34.3 34.4 29.6 34.8 33.2 31.7 31.3 27.4 35.3 29.8 38.9 26.6 37.9 31.2 41.9 33.6 37.2 34.1"/>
    <polygon class="st0" points="29.4 45.4 30.6 50 26.9 47 23 49.6 24.6 45.2 21 42.2 25.7 42.5 27.3 38.1 28.6 42.6 33.3 42.8 29.4 45.4"/>
    <polygon class="st0" points="27.6 59.1 30.9 62.6 26.2 61.7 23.9 65.8 23.4 61.1 18.7 60.2 23 58.2 22.4 53.5 25.7 57 29.9 55 27.6 59.1"/>
    <polygon class="st0" points="32.5 72.1 37 73.6 32.4 75 32.3 79.7 29.6 75.8 25.1 77.2 28 73.4 25.3 69.5 29.8 71.1 32.6 67.3 32.5 72.1"/>
    <polygon class="st0" points="42.8 81.2 47.5 80.6 44.1 83.9 46.2 88.1 42 85.9 38.6 89.2 39.4 84.5 35.3 82.3 39.9 81.7 40.7 77 42.8 81.2"/>
  </g>
  <g>
    <g>
      <path d="M291.7,38.7h7.1c0,1.6-.4,3.1-1.2,4.3-.8,1.3-1.9,2.3-3.3,3.1-1.4.7-3,1.1-4.7,1.1s-4.1-.5-5.8-1.5c-1.7-1-3-2.3-3.9-4-.9-1.7-1.4-3.7-1.4-5.9s.5-4.3,1.4-6c1-1.7,2.3-3.1,3.9-4,1.7-1,3.6-1.5,5.7-1.5s2.2.2,3.3.6c1.1.4,2.1.9,3,1.6.9.7,1.6,1.4,2.2,2.3l3.3-2.2c-.8-1.2-1.7-2.2-3-3.1-1.2-.9-2.6-1.6-4.1-2.1-1.5-.5-3.1-.8-4.7-.8-3,0-5.6.7-7.9,2-2.3,1.3-4.1,3.1-5.4,5.4-1.3,2.3-2,4.9-2,7.9s.7,5.5,2,7.8c1.3,2.3,3.1,4.1,5.4,5.4s4.9,2,7.9,2,4.9-.5,6.9-1.6c2-1.1,3.5-2.6,4.7-4.5,1.1-1.9,1.7-4.1,1.7-6.6h0v-3h-11.1v3.4Z"/>
      <path d="M321.7,30.3c-1.6-.9-3.4-1.4-5.5-1.4s-3.9.5-5.5,1.4c-1.6.9-2.8,2.2-3.7,3.9-.9,1.7-1.3,3.6-1.3,5.7s.5,4.1,1.4,5.7c.9,1.7,2.2,2.9,3.8,3.9,1.6.9,3.4,1.4,5.5,1.4s3.9-.5,5.4-1.4c1.6-.9,2.8-2.2,3.7-3.9.9-1.7,1.3-3.6,1.3-5.7s-.4-4.1-1.3-5.7c-.9-1.7-2.1-2.9-3.7-3.9ZM321.9,43.8c-.5,1.1-1.3,2-2.3,2.6-1,.6-2.1.9-3.4.9s-2.4-.3-3.4-.9c-1-.6-1.8-1.5-2.4-2.6-.6-1.1-.8-2.4-.8-3.8s.3-2.7.8-3.8c.6-1.1,1.3-2,2.3-2.6,1-.6,2.1-.9,3.4-.9s2.4.3,3.4.9c1,.6,1.8,1.5,2.3,2.6.5,1.1.8,2.4.8,3.8s-.3,2.7-.8,3.8Z"/>
      <path d="M346.4,30.3c-1.4-.9-3.1-1.4-5-1.4s-3.3.5-4.6,1.4c-.9.6-1.7,1.5-2.3,2.5v-11.8h-4v29.4h3.8l.2-3.4c.6,1,1.4,1.9,2.3,2.5,1.3.9,2.8,1.4,4.6,1.4s3.5-.5,5-1.4c1.4-.9,2.5-2.2,3.3-3.9.8-1.7,1.2-3.6,1.2-5.8s-.4-4.1-1.2-5.8c-.8-1.6-1.9-2.9-3.3-3.8ZM346.1,43.8c-.5,1.1-1.3,2-2.2,2.6-1,.6-2.1.9-3.3.9s-2.2-.3-3.1-.9c-.9-.6-1.6-1.5-2.1-2.6-.5-1.1-.8-2.4-.8-3.8s.3-2.7.8-3.8c.5-1.1,1.2-2,2.1-2.6.9-.6,1.9-.9,3.1-.9s2.4.3,3.3.9c1,.6,1.7,1.5,2.2,2.6.5,1.1.8,2.4.8,3.8s-.3,2.7-.8,3.8Z"/>
      <path d="M356.8,20.2c-.6,0-1.2.2-1.7.7-.5.5-.7,1-.7,1.7s.2,1.2.7,1.7c.5.5,1,.7,1.7.7s1.2-.2,1.7-.7c.5-.5.7-1.1.7-1.7s-.2-1.2-.7-1.7c-.5-.5-1-.7-1.7-.7Z"/>
      <polygon points="354.8 50.4 358.8 50.4 358.9 29.4 354.9 29.4 354.8 50.4"/>
      <path d="M380.7,40.8h2.2c0-2.4-.4-4.5-1.2-6.3-.8-1.8-2-3.1-3.4-4.1-1.5-1-3.2-1.4-5.1-1.4s-3.9.5-5.4,1.4c-1.6.9-2.8,2.2-3.7,3.9-.9,1.7-1.3,3.6-1.3,5.7s.4,4.1,1.3,5.7c.9,1.7,2.1,2.9,3.7,3.9,1.6.9,3.4,1.4,5.4,1.4s2.9-.2,4.1-.7c1.2-.4,2.3-1.1,3.2-1.9.9-.8,1.6-1.8,2.2-2.9l-3.6-1.6c-.5,1-1.3,1.8-2.2,2.5-.9.6-2.1,1-3.4,1s-2.4-.3-3.4-.9c-1-.6-1.8-1.4-2.4-2.5-.5-.9-.8-1.9-.8-3.1h13.9ZM367,37.5c.1-.6.3-1.1.5-1.5.5-1.1,1.3-2,2.2-2.6,1-.6,2.1-.9,3.4-.9s2.3.3,3.2.9c.9.6,1.6,1.6,2,2.8.1.4.3.8.4,1.3h-11.7Z"/>
      <path d="M390.5,33.2v-3.8h-4v21h4v-11.4c0-1.5.4-2.6,1.1-3.5.7-.9,1.6-1.5,2.8-1.8,1.1-.4,2.3-.6,3.6-.6v-3.8c-1.5,0-3,.4-4.3,1-1.2.6-2.3,1.6-3.1,2.8Z"/>
      <path d="M411,28.9c-1.7,0-3.2.4-4.4,1.3-.8.6-1.5,1.3-2.1,2.3l-.2-3h-3.7v21h4v-10.9c0-2.2.5-3.9,1.4-5.1,1-1.2,2.3-1.8,4-1.8,1,0,1.9.2,2.7.6.8.4,1.4,1.1,1.8,2.1.4,1,.7,2.4.7,4.3v10.7h4v-12c0-3.2-.7-5.6-2.2-7.2-1.4-1.6-3.4-2.3-5.9-2.3Z"/>
      <path d="M438.6,30.3c-1.6-.9-3.4-1.4-5.5-1.4s-3.9.5-5.5,1.4c-1.6.9-2.8,2.2-3.7,3.9-.9,1.7-1.3,3.6-1.3,5.7s.5,4.1,1.4,5.7c.9,1.7,2.2,2.9,3.8,3.9,1.6.9,3.4,1.4,5.5,1.4s3.9-.5,5.4-1.4c1.6-.9,2.8-2.2,3.7-3.9.9-1.7,1.3-3.6,1.3-5.7s-.4-4.1-1.3-5.7c-.9-1.7-2.1-2.9-3.7-3.9ZM438.8,43.8c-.5,1.1-1.3,2-2.3,2.6-1,.6-2.1.9-3.4.9s-2.4-.3-3.4-.9c-1-.6-1.8-1.5-2.4-2.6-.6-1.1-.8-2.4-.8-3.8s.3-2.7.8-3.8c.6-1.1,1.3-2,2.3-2.6,1-.6,2.1-.9,3.4-.9s2.4.3,3.4.9c1,.6,1.8,1.5,2.3,2.6.5,1.1.8,2.4.8,3.8s-.3,2.7-.8,3.8Z"/>
    </g>
    <g>
      <path d="M291.4,75c1.7-.8,3-2,3.9-3.5,1-1.5,1.4-3.2,1.4-5.1s-.5-3.6-1.4-5.1c-.9-1.5-2.2-2.6-3.9-3.5-1.7-.8-3.5-1.2-5.7-1.2h-5.7s-5.9,0-5.9,0v29.4h6.8v-9.9h3.6l5.6,9.9h7.7l-6.7-11.1s0,0,.1,0ZM281,62.8h4.5c1.3,0,2.3.3,3,1,.8.7,1.2,1.5,1.2,2.6s-.2,1.3-.5,1.8c-.4.5-.8,1-1.4,1.3-.6.3-1.3.5-2.1.5h-4.6v-7.1Z"/>
      <polygon points="311.8 56.7 304.7 56.7 300 62.6 306.4 62.6 311.8 56.7"/>
      <rect x="300.6" y="65.1" width="6.6" height="21"/>
      <path d="M327,66c-1.7-.9-3.6-1.4-5.9-1.4s-4.1.5-5.8,1.4c-1.7.9-3,2.2-3.9,3.9-.9,1.7-1.4,3.6-1.4,5.7s.5,4.1,1.4,5.7c1,1.7,2.3,2.9,4,3.9,1.7.9,3.6,1.4,5.8,1.4s4.1-.5,5.8-1.4c1.7-.9,3-2.2,3.9-3.9.9-1.7,1.4-3.6,1.4-5.7s-.5-4.1-1.4-5.7c-.9-1.7-2.3-2.9-3.9-3.9ZM325,78.2c-.4.7-.9,1.3-1.6,1.7-.7.4-1.4.6-2.2.6s-1.7-.2-2.4-.6c-.7-.4-1.2-1-1.6-1.7-.4-.7-.6-1.6-.6-2.6s.2-1.8.6-2.6c.4-.7.9-1.3,1.6-1.7.7-.4,1.4-.6,2.3-.6s1.6.2,2.3.6,1.2,1,1.6,1.7c.4.7.6,1.6.6,2.6s-.2,1.8-.6,2.6Z"/>
      <polygon points="363.5 74.7 350.6 56.7 343.5 56.7 343.5 86.1 350.3 86.1 350.3 67.6 363.5 86.1 370.3 86.1 370.3 56.7 363.5 56.7 363.5 74.7"/>
      <path d="M392.5,77.2h3.1c0-2.8-.5-5.1-1.4-7-.9-1.9-2.2-3.3-3.8-4.2-1.6-1-3.4-1.4-5.4-1.4s-4.2.5-5.8,1.4c-1.7.9-3,2.2-4,3.9-1,1.7-1.4,3.6-1.4,5.8s.5,4.1,1.4,5.7c1,1.7,2.3,2.9,3.9,3.9,1.7.9,3.6,1.4,5.8,1.4s2.9-.2,4.2-.6c1.3-.4,2.5-1.1,3.5-1.9,1-.9,1.8-2,2.4-3.3l-5.9-2c-.3.7-.8,1.3-1.4,1.7-.7.4-1.5.7-2.5.7s-1.6-.2-2.3-.5c-.7-.4-1.3-.9-1.7-1.7-.3-.5-.4-1-.5-1.6h11.9ZM382.4,70.3c.6-.5,1.5-.7,2.4-.7s1.9.3,2.5.9c.6.5,1,1.3,1.3,2.2h-7.8c0-.1,0-.2,0-.4.3-.9.8-1.6,1.4-2.1Z"/>
      <path d="M413,68.3c-.6-1-1.3-1.8-2.1-2.4-1.2-.9-2.6-1.3-4.2-1.3s-3.6.4-5.1,1.3c-1.4.9-2.5,2.1-3.3,3.7-.8,1.6-1.2,3.5-1.2,5.8s.4,3.8,1.2,5.3c.8,1.5,1.9,2.6,3.3,3.4,1.4.8,3.1,1.2,5.1,1.2s3-.4,4.2-1.2c.8-.6,1.5-1.3,2.1-2.2v2c0,1.2-.2,2.2-.7,3-.4.8-1,1.4-1.8,1.8-.8.4-1.6.6-2.6.6s-2.3-.1-3.2-.3c-.9-.2-1.7-.5-2.3-.8-.6-.3-1.1-.5-1.6-.7l-2.6,5.2c.6.4,1.3.9,2.2,1.2.9.4,2,.7,3.3.9,1.3.2,2.8.3,4.5.3s4.5-.5,6.1-1.4c1.7-.9,3-2.2,3.9-3.9.9-1.7,1.3-3.7,1.3-6.1v-18.6h-6.6v3.2ZM412.1,77.5c-.3.7-.8,1.3-1.4,1.7-.6.4-1.3.6-2.2.6s-1.5-.2-2.2-.6c-.6-.4-1.1-1-1.5-1.7-.4-.7-.5-1.5-.6-2.4,0-1,.2-1.8.6-2.5.3-.7.8-1.2,1.5-1.6.6-.4,1.4-.6,2.2-.6s1.6.2,2.2.6c.6.4,1.1.9,1.4,1.6.3.7.5,1.5.5,2.5s-.2,1.7-.5,2.4Z"/>
      <path d="M430,69v-3.9h-6.6v21h6.6v-10.8c0-.9.3-1.6,1-2.2.7-.6,1.6-1,2.8-1.3,1.1-.3,2.3-.4,3.6-.4v-6.4c-1.5,0-3,.4-4.3,1.1-1.2.7-2.2,1.6-3.1,2.9Z"/>
      <path d="M459.5,69.9c-.9-1.7-2.3-2.9-3.9-3.9-1.7-.9-3.6-1.4-5.9-1.4s-4.1.5-5.8,1.4c-1.7.9-3,2.2-3.9,3.9-.9,1.7-1.4,3.6-1.4,5.7s.5,4.1,1.4,5.7c1,1.7,2.3,2.9,4,3.9,1.7.9,3.6,1.4,5.8,1.4s4.1-.5,5.8-1.4c1.7-.9,3-2.2,3.9-3.9.9-1.7,1.4-3.6,1.4-5.7s-.5-4.1-1.4-5.7ZM453.7,78.2c-.4.7-.9,1.3-1.6,1.7-.7.4-1.4.6-2.2.6s-1.7-.2-2.4-.6c-.7-.4-1.2-1-1.6-1.7-.4-.7-.6-1.6-.6-2.6s.2-1.8.6-2.6c.4-.7.9-1.3,1.6-1.7.7-.4,1.4-.6,2.3-.6s1.6.2,2.3.6,1.2,1,1.6,1.7c.4.7.6,1.6.6,2.6s-.2,1.8-.6,2.6Z"/>
    </g>
  </g>
</svg>